# xmcd
#
# Track frame offsets: 
#        150
#        34478
#        65186
#        94357
#        125580
#        154644
#        176120
#        202922
#        229590
#        265305
#
# Disc length: 3868 seconds
#
# Revision: 1
# Processed by: cddbd v1.5.2PL0 Copyright (c) Steve Scherf et al.
# Submitted via: ExactAudioCopy v0.99pb4
#
DISCID=910f1a0a
DTITLE=Jimmy Greene - Mission Statement
DYEAR=2009
DGENRE=Jazz
TTITLE0=Mission Statement
TTITLE1=Fathers and Sons
TTITLE2=Trials
TTITLE3=Love In Action
TTITLE4=Revelation
TTITLE5=In Nelba's Eyes
TTITLE6=YeahYouRight!
TTITLE7=Mr. Octopus
TTITLE8=Ana Grace
TTITLE9=Give Thanks
EXTD=YEAR: 2009
EXTT0=
EXTT1=
EXTT2=
EXTT3=
EXTT4=
EXTT5=
EXTT6=
EXTT7=
EXTT8=
EXTT9=
PLAYORDER=
